<?xml version="1.0" encoding="UTF-8"?>
<svg viewBox="0 0 128 128" xmlns="http://www.w3.org/2000/svg">
  <!-- Background circle -->
  <circle cx="64" cy="64" r="58" fill="#3b82f6" stroke="#1e40af" stroke-width="4"/>
  
  <!-- Eye symbol -->
  <ellipse cx="64" cy="50" rx="25" ry="15" fill="white"/>
  <circle cx="64" cy="50" r="8" fill="#1e40af"/>
  <circle cx="66" cy="48" r="3" fill="white"/>
  
  <!-- Focus rings -->
  <circle cx="64" cy="50" r="20" fill="none" stroke="white" stroke-width="2" opacity="0.6"/>
  <circle cx="64" cy="50" r="30" fill="none" stroke="white" stroke-width="1.5" opacity="0.3"/>
  
  <!-- Brain waves at bottom -->
  <path d="M30 85 Q35 80 40 85 T50 85 T60 85 T70 85 T80 85 T90 85 T98 85" 
        stroke="white" stroke-width="2" fill="none" opacity="0.8"/>
  <path d="M35 95 Q40 90 45 95 T55 95 T65 95 T75 95 T85 95 T93 95" 
        stroke="white" stroke-width="2" fill="none" opacity="0.6"/>
  
  <!-- Sparkle elements -->
  <g fill="white" opacity="0.8">
    <circle cx="25" cy="30" r="2"/>
    <circle cx="102" cy="35" r="2"/>
    <circle cx="15" cy="60" r="1.5"/>
    <circle cx="110" cy="70" r="1.5"/>
  </g>
</svg>
